{
  "title": "Game of Thrones S05E04 HDTV x264-XclusivE",
  "uid": 11811696,
  "size": 358482656,
  "categoryP": "video",
  "categoryS": "tv_shows",
  "magnet": "?xt=urn:btih:f870b40d86c6fe61233288fa5ce19b3e8efebf5a&amp;dn=Game+of+Thrones+S05E04+HDTV+x264-XclusivE&amp;tr=udp%3A%2F%2Ftracker.openbittorrent.com%3A80&amp;tr=udp%3A%2F%2Fopen.demonii.com%3A1337&amp;tr=udp%3A%2F%2Ftracker.coppersurfer.tk%3A6969&amp;tr=udp%3A%2F%2Fexodus.desync.com%3A6969",
  "seeders": 60,
  "leechers": 2,
  "uploader": "HeroMaster",
  "files": 1,
  "time": 1428799181,
  "description": "::::::::: XclusivE PRESENTS :::::::::\n\n\n:::: Game of Thrones S05E04 HDTV x264 ::::\n\n\n::Information::\n\n\nGeneral\nComplete name: Game.of.Thrones.S05E04.HDTV.x264-Xclusive.mp4\nFormat: MPEG-4\nFormat profile: Base Media\nCodec ID: isom\nFile size: 342 MiB\nDuration: 50mn 22s\nOverall bit rate: 949 Kbps\nWriting application: Lavf53.31.100\nEncoded by: Xclusive-4-iPT\n\nVideo\nID: 1\nFormat: AVC\nFormat/Info: Advanced Video Codec\nFormat profile: &lt;a class=&quot;__cf_email__&quot; href=&quot;/cdn-cgi/l/email-protection&quot; data-cfemail=&quot;cd85a4aaa58d81fee3fc&quot;&gt;[email&amp;#160;protected]&lt;/a&gt;&lt;script cf-hash='f9e31' type=&quot;text/javascript&quot;&gt;\n/* &lt;![CDATA[ */!function(){try{var t=&quot;currentScript&quot;in document?document.currentScript:function(){for(var t=document.getElementsByTagName(&quot;script&quot;),e=t.length;e--;)if(t[e].getAttribute(&quot;cf-hash&quot;))return t[e]}();if(t&amp;&amp;t.previousSibling){var e,r,n,i,c=t.previousSibling,a=c.getAttribute(&quot;data-cfemail&quot;);if(a){for(e=&quot;&quot;,r=parseInt(a.substr(0,2),16),n=2;a.length-n;n+=2)i=parseInt(a.substr(n,2),16)^r,e+=String.fromCharCode(i);e=document.createTextNode(e),c.parentNode.replaceChild(e,c)}}}catch(u){}}();/* ]]&gt; */&lt;/script&gt;\nFormat settings, CABAC: Yes\nFormat settings, ReFrames: 5 frames\nCodec ID: avc1\nCodec ID/Info: Advanced Video Coding\nDuration: 50mn 22s\nBit rate: 796 Kbps\nWidth: 720 pixels\nHeight: 392 pixels\nDisplay aspect ratio: 1.85:1\nFrame rate mode: Variable\nFrame rate: 23.976 fps\nMinimum frame rate: 23.952 fps\nMaximum frame rate: 24.000 fps\nColor space: YUV\nChroma subsampling: 4:2:0\nBit depth: 8 bits\nScan type: Progressive\nBits/(Pixel*Frame): 0.118\nStream size: 287 MiB (84%)\n\nAudio\nID: 2\nFormat: AAC\nFormat/Info: Advanced Audio Codec\nFormat profile: LC\nCodec ID: 40\nDuration: 50mn 22s\nDuration_LastFrame: -21ms\nBit rate mode: Constant\nBit rate: 147 Kbps\nChannel(s): 2 channels\nChannel positions: Front: L R\nSampling rate: 48.0 KHz\nCompression mode: Lossy\nStream size: 53.1 MiB (16%) \n\n\n::IMDB::\n\n &lt;a href=&quot;\nhttp://www.imdb.com/title/tt0944947/&quot; rel=&quot;nofollow&quot; target=&quot;_NEW&quot;&gt;\nhttp://www.imdb.com/title/tt0944947/&lt;/a&gt;\n\n\n::Poster::\n\n   &lt;a href=&quot;\nhttp://i.imgur.com/UqmDGYZ.png&quot; rel=&quot;nofollow&quot; target=&quot;_NEW&quot;&gt;\nhttp://i.imgur.com/UqmDGYZ.png&lt;/a&gt;\n\n\n::Screenshots::\n\n &lt;a href=&quot;\nhttp://i.imgur.com/KDf5ZWL.jpg&quot; rel=&quot;nofollow&quot; target=&quot;_NEW&quot;&gt;\nhttp://i.imgur.com/KDf5ZWL.jpg&lt;/a&gt;\n\n\nSEED AND ENJOY!",
  "parsed": {
    "xt": "urn:btih:f870b40d86c6fe61233288fa5ce19b3e8efebf5a",
    "dn": "Game of Thrones S05E04 HDTV x264-XclusivE",
    "tr": [
      "udp://exodus.desync.com:6969",
      "udp://open.demonii.com:1337",
      "udp://tracker.coppersurfer.tk:6969",
      "udp://tracker.openbittorrent.com:80"
    ],
    "infoHash": "f870b40d86c6fe61233288fa5ce19b3e8efebf5a",
    "infoHashBuffer": {
      "type": "Buffer",
      "data": [
        248,
        112,
        180,
        13,
        134,
        198,
        254,
        97,
        35,
        50,
        136,
        250,
        92,
        225,
        155,
        62,
        142,
        254,
        191,
        90
      ]
    },
    "name": "Game of Thrones S05E04 HDTV x264-XclusivE",
    "announce": [
      "udp://exodus.desync.com:6969",
      "udp://open.demonii.com:1337",
      "udp://tracker.coppersurfer.tk:6969",
      "udp://tracker.openbittorrent.com:80"
    ],
    "urlList": []
  },
  "previous": 62,
  "peers": 5,
  "last_updated": "2016-12-25T18:30:00.790Z"
}